<svg width="475" height="475" viewBox="0 0 475 475" fill="none" xmlns="http://www.w3.org/2000/svg">
<path d="M138.987 324.614C126.59 357.404 114.371 389.829 102.079 422.229C101.113 424.775 99.8473 427.266 98.3588 429.564C96.5916 432.292 93.951 434.248 90.4371 433.812C86.6648 433.344 84.891 430.555 83.6679 427.328C82.0263 422.998 83.1313 418.898 84.5978 414.824C90.3471 398.851 96.0584 382.865 101.911 366.927C112.434 338.269 123.057 309.645 133.611 280.997C134.598 278.318 135.393 275.574 136.468 272.275C131.036 273.456 126.751 275.319 122.711 277.729C120.641 278.964 119.485 280.765 119.31 283.209C119.072 286.537 116.856 288.205 113.632 288.025C110.004 287.824 109.318 285.141 109.226 282.132C109.048 276.281 112.586 272.594 117.055 269.53C122.318 265.921 128.252 263.52 134.521 262.317C139.35 261.39 141.589 258.848 143.052 254.521C149.144 236.512 157.123 219.095 161.671 200.608C163.612 192.719 163.242 184.627 160.853 176.782C155.038 157.688 138.678 148.474 117.424 152.428C99.9207 155.684 85.2104 163.691 74.2463 177.441C61.7541 193.107 54.0569 210.687 52.8722 230.589C52.5901 235.327 53.3462 240.088 56.1321 243.988C57.5453 244.371 58.1606 243.658 58.8786 243.204C66.2718 238.527 72.5877 238.457 77.8264 242.996C83.3004 247.739 85.0355 256.802 81.7166 263.316C74.8137 276.863 56.115 280.746 43.6415 270.887C30.5736 260.559 27.0764 246.137 28.9842 231.076C34.382 188.464 68.225 153.539 111.377 144.844C124.033 142.294 136.729 142.282 149.195 145.839C167.227 150.984 180.336 168.927 182.415 188.263C183.957 202.601 180.662 215.666 175.488 228.701C172.145 237.125 169.059 245.643 165.655 254.657C172.921 255.815 179.458 254.065 186.006 253.655C196.061 253.025 206.066 251.6 216.124 251.096C220.489 250.878 222.2 249.202 223.481 245.441C235.632 209.751 247.945 174.112 260.252 138.471C261.931 133.609 263.778 128.794 266.568 124.387C268.249 121.731 270.216 119.304 273.115 117.808C277.809 115.385 282.661 117.877 283.159 123.023C283.625 127.852 282.748 132.516 281.155 137.126C259.767 199.011 238.413 260.908 217.102 322.818C215.649 327.04 214.739 331.475 210.753 334.344C207.214 336.892 203.39 338.927 199.042 336.432C194.803 334 194.872 329.9 195.897 325.936C199.201 313.155 204.584 301.021 208.627 288.465C210.884 281.454 213.435 274.531 215.806 267.553C216.395 265.818 217.41 264.099 216.463 261.889C208.398 260.881 200.369 262.49 192.329 263.096C184.053 263.719 175.841 265.115 167.57 265.855C162.824 266.28 160.195 268.054 158.533 272.705C152.363 289.982 145.653 307.079 138.987 324.614Z" fill="#31649E"/>
<path d="M365.891 90.4859C338.142 69.0252 306.937 55.6859 272.142 51.491C216.863 44.8264 167.249 58.5522 124.081 92.8927C106.818 106.625 92.9016 123.124 81.6761 141.77C81.054 142.803 80.4597 143.874 79.6843 144.795C78.1119 146.664 76.1467 147.746 73.6397 146.577C70.9423 145.319 70.4659 143.021 71.1716 140.493C71.5325 139.2 72.265 137.974 72.9889 136.81C105.97 83.7692 153.956 51.4286 217.352 42.4345C282.685 33.1654 339.765 51.7574 387.073 95.9763C419.612 126.391 438.955 163.955 444.654 207.597C452.842 270.299 434.039 324.794 388.374 369.678C349.795 407.598 302.017 426.355 246.694 426.669C209.837 426.879 175.745 417.528 144.045 399.615C142.827 398.927 141.575 398.236 140.523 397.343C138.392 395.533 137.849 393.235 139.46 390.924C140.956 388.778 143.34 388.495 145.619 389.526C148.498 390.829 151.229 392.438 154.007 393.946C223.665 431.751 311.921 422.651 371.874 371.45C407.392 341.117 429.336 303.208 434.914 257.914C443.191 190.696 419.97 134.619 365.891 90.4859Z" fill="#2E6F42"/>
<path d="M321.311 252.52C322.548 247.833 324.414 243.692 324.159 239.127C324.043 237.04 323.981 234.96 321.72 233.822C319.098 232.503 317.301 234.184 315.583 235.598C312.569 238.078 310.571 241.326 308.809 244.702C304.184 253.567 300.169 262.68 296.98 272.122C296.011 274.989 294.815 277.646 291.237 278.116C288.737 278.445 288.354 280.445 287.744 282.161C282.282 297.51 276.868 312.874 271.459 328.241C269.669 333.325 266.916 337.532 261.092 338.924C255.645 340.226 251.837 337.359 252.236 331.947C252.459 328.912 253.132 325.823 254.157 322.942C264.333 294.343 274.615 265.779 284.906 237.218C285.601 235.289 286.479 233.397 287.495 231.606C289.684 227.747 292.333 224.379 297.515 224.28C302.582 224.182 304.424 227.627 305.833 232.036C311.45 226.848 317.472 223.57 325.021 223.868C332.684 224.17 338.608 227.237 341.938 234.442C344.758 232.663 346.982 230.977 349.453 229.755C356.813 226.114 364.408 226.288 371.226 230.524C377.354 234.331 378.19 240.792 377.857 247.401C377.214 260.144 371.923 271.565 367.161 283.148C362.528 294.412 356.321 305.063 353.007 316.837C352.268 319.464 351.717 322.157 351.324 324.853C351.006 327.039 351.728 329.011 354.069 329.864C356.166 330.628 358.006 329.786 359.22 328.162C361.91 324.565 364.709 320.999 366.95 317.142C372.491 307.605 377.741 297.91 383.115 288.282C383.87 286.93 384.542 285.513 385.471 284.279C386.635 282.733 388.105 281.18 390.334 282.231C392.7 283.347 393.731 285.462 392.635 287.82C385.389 303.405 378.604 319.284 367.121 332.576C362.01 338.493 355.477 341.299 347.236 338.651C340.224 336.397 336.008 330.627 335.829 321.886C335.669 314.101 337.891 306.685 340.289 299.345C344.924 285.153 352.556 272.059 356.73 257.699C357.827 253.923 358.822 250.11 359.63 246.269C360.333 242.931 360.2 239.438 356.467 237.885C352.887 236.397 350.402 238.96 348.408 241.375C343.263 247.61 340.294 254.959 337.4 262.32C334.7 269.187 332.078 276.082 329.309 282.923C328.542 284.819 327.575 286.703 326.351 288.35C323.588 292.069 319.622 293.771 315.21 292.002C310.8 290.235 309.719 286.06 311.005 282.031C314.128 272.245 317.748 262.607 321.311 252.52Z" fill="#31649E"/>
<path d="M83.1521 341.435C75.6538 331.042 69.3786 320.408 64.0811 309.229C62.5624 306.024 61.5574 302.76 65.6862 300.949C69.8272 299.133 71.6871 302.079 73.1899 305.246C77.9741 315.329 83.5565 324.98 90.1339 334.084C90.5374 334.642 90.9334 335.207 91.3073 335.784C92.9199 338.273 93.8893 340.912 91.109 343.114C88.1772 345.436 85.5447 344.391 83.1521 341.435Z" fill="#2E6F42"/>
</svg>
